<svg xmlns="http://www.w3.org/2000/svg" width="208" height="232" viewBox="0 0 208 232" role="img" aria-label="Ticket QR"><rect width="208" height="232" fill="#ffffff"/><g transform="translate(20 12)"><rect x="0" y="0" width="8" height="8" fill="#111827"/><rect x="8" y="0" width="8" height="8" fill="#111827"/><rect x="16" y="0" width="8" height="8" fill="#111827"/><rect x="24" y="0" width="8" height="8" fill="#111827"/><rect x="32" y="0" width="8" height="8" fill="#111827"/><rect x="40" y="0" width="8" height="8" fill="#111827"/><rect x="48" y="0" width="8" height="8" fill="#111827"/><rect x="56" y="0" width="8" height="8" fill="#111827"/><rect x="64" y="0" width="8" height="8" fill="#111827"/><rect x="80" y="0" width="8" height="8" fill="#111827"/><rect x="88" y="0" width="8" height="8" fill="#111827"/><rect x="96" y="0" width="8" height="8" fill="#111827"/><rect x="112" y="0" width="8" height="8" fill="#111827"/><rect x="120" y="0" width="8" height="8" fill="#111827"/><rect x="128" y="0" width="8" height="8" fill="#111827"/><rect x="136" y="0" width="8" height="8" fill="#111827"/><rect x="144" y="0" width="8" height="8" fill="#111827"/><rect x="152" y="0" width="8" height="8" fill="#111827"/><rect x="160" y="0" width="8" height="8" fill="#111827"/><rect x="0" y="8" width="8" height="8" fill="#111827"/><rect x="8" y="8" width="8" height="8" fill="#111827"/><rect x="16" y="8" width="8" height="8" fill="#111827"/><rect x="24" y="8" width="8" height="8" fill="#111827"/><rect x="32" y="8" width="8" height="8" fill="#111827"/><rect x="40" y="8" width="8" height="8" fill="#111827"/><rect x="48" y="8" width="8" height="8" fill="#111827"/><rect x="88" y="8" width="8" height="8" fill="#111827"/><rect x="96" y="8" width="8" height="8" fill="#111827"/><rect x="104" y="8" width="8" height="8" fill="#111827"/><rect x="112" y="8" width="8" height="8" fill="#111827"/><rect x="120" y="8" width="8" height="8" fill="#111827"/><rect x="128" y="8" width="8" height="8" fill="#111827"/><rect x="136" y="8" width="8" height="8" fill="#111827"/><rect x="144" y="8" width="8" height="8" fill="#111827"/><rect x="152" y="8" width="8" height="8" fill="#111827"/><rect x="160" y="8" width="8" height="8" fill="#111827"/><rect x="0" y="16" width="8" height="8" fill="#111827"/><rect x="8" y="16" width="8" height="8" fill="#111827"/><rect x="16" y="16" width="8" height="8" fill="#111827"/><rect x="24" y="16" width="8" height="8" fill="#111827"/><rect x="32" y="16" width="8" height="8" fill="#111827"/><rect x="40" y="16" width="8" height="8" fill="#111827"/><rect x="48" y="16" width="8" height="8" fill="#111827"/><rect x="72" y="16" width="8" height="8" fill="#111827"/><rect x="80" y="16" width="8" height="8" fill="#111827"/><rect x="96" y="16" width="8" height="8" fill="#111827"/><rect x="104" y="16" width="8" height="8" fill="#111827"/><rect x="112" y="16" width="8" height="8" fill="#111827"/><rect x="120" y="16" width="8" height="8" fill="#111827"/><rect x="128" y="16" width="8" height="8" fill="#111827"/><rect x="136" y="16" width="8" height="8" fill="#111827"/><rect x="144" y="16" width="8" height="8" fill="#111827"/><rect x="152" y="16" width="8" height="8" fill="#111827"/><rect x="160" y="16" width="8" height="8" fill="#111827"/><rect x="0" y="24" width="8" height="8" fill="#111827"/><rect x="8" y="24" width="8" height="8" fill="#111827"/><rect x="16" y="24" width="8" height="8" fill="#111827"/><rect x="24" y="24" width="8" height="8" fill="#111827"/><rect x="32" y="24" width="8" height="8" fill="#111827"/><rect x="40" y="24" width="8" height="8" fill="#111827"/><rect x="48" y="24" width="8" height="8" fill="#111827"/><rect x="56" y="24" width="8" height="8" fill="#111827"/><rect x="64" y="24" width="8" height="8" fill="#111827"/><rect x="72" y="24" width="8" height="8" fill="#111827"/><rect x="88" y="24" width="8" height="8" fill="#111827"/><rect x="96" y="24" width="8" height="8" fill="#111827"/><rect x="104" y="24" width="8" height="8" fill="#111827"/><rect x="112" y="24" width="8" height="8" fill="#111827"/><rect x="120" y="24" width="8" height="8" fill="#111827"/><rect x="128" y="24" width="8" height="8" fill="#111827"/><rect x="136" y="24" width="8" height="8" fill="#111827"/><rect x="144" y="24" width="8" height="8" fill="#111827"/><rect x="152" y="24" width="8" height="8" fill="#111827"/><rect x="160" y="24" width="8" height="8" fill="#111827"/><rect x="0" y="32" width="8" height="8" fill="#111827"/><rect x="8" y="32" width="8" height="8" fill="#111827"/><rect x="16" y="32" width="8" height="8" fill="#111827"/><rect x="24" y="32" width="8" height="8" fill="#111827"/><rect x="32" y="32" width="8" height="8" fill="#111827"/><rect x="40" y="32" width="8" height="8" fill="#111827"/><rect x="48" y="32" width="8" height="8" fill="#111827"/><rect x="96" y="32" width="8" height="8" fill="#111827"/><rect x="104" y="32" width="8" height="8" fill="#111827"/><rect x="112" y="32" width="8" height="8" fill="#111827"/><rect x="120" y="32" width="8" height="8" fill="#111827"/><rect x="128" y="32" width="8" height="8" fill="#111827"/><rect x="136" y="32" width="8" height="8" fill="#111827"/><rect x="144" y="32" width="8" height="8" fill="#111827"/><rect x="152" y="32" width="8" height="8" fill="#111827"/><rect x="160" y="32" width="8" height="8" fill="#111827"/><rect x="0" y="40" width="8" height="8" fill="#111827"/><rect x="8" y="40" width="8" height="8" fill="#111827"/><rect x="16" y="40" width="8" height="8" fill="#111827"/><rect x="24" y="40" width="8" height="8" fill="#111827"/><rect x="32" y="40" width="8" height="8" fill="#111827"/><rect x="40" y="40" width="8" height="8" fill="#111827"/><rect x="48" y="40" width="8" height="8" fill="#111827"/><rect x="56" y="40" width="8" height="8" fill="#111827"/><rect x="80" y="40" width="8" height="8" fill="#111827"/><rect x="88" y="40" width="8" height="8" fill="#111827"/><rect x="104" y="40" width="8" height="8" fill="#111827"/><rect x="112" y="40" width="8" height="8" fill="#111827"/><rect x="120" y="40" width="8" height="8" fill="#111827"/><rect x="128" y="40" width="8" height="8" fill="#111827"/><rect x="136" y="40" width="8" height="8" fill="#111827"/><rect x="144" y="40" width="8" height="8" fill="#111827"/><rect x="152" y="40" width="8" height="8" fill="#111827"/><rect x="160" y="40" width="8" height="8" fill="#111827"/><rect x="0" y="48" width="8" height="8" fill="#111827"/><rect x="8" y="48" width="8" height="8" fill="#111827"/><rect x="16" y="48" width="8" height="8" fill="#111827"/><rect x="24" y="48" width="8" height="8" fill="#111827"/><rect x="32" y="48" width="8" height="8" fill="#111827"/><rect x="40" y="48" width="8" height="8" fill="#111827"/><rect x="48" y="48" width="8" height="8" fill="#111827"/><rect x="64" y="48" width="8" height="8" fill="#111827"/><rect x="72" y="48" width="8" height="8" fill="#111827"/><rect x="80" y="48" width="8" height="8" fill="#111827"/><rect x="96" y="48" width="8" height="8" fill="#111827"/><rect x="104" y="48" width="8" height="8" fill="#111827"/><rect x="112" y="48" width="8" height="8" fill="#111827"/><rect x="120" y="48" width="8" height="8" fill="#111827"/><rect x="128" y="48" width="8" height="8" fill="#111827"/><rect x="136" y="48" width="8" height="8" fill="#111827"/><rect x="144" y="48" width="8" height="8" fill="#111827"/><rect x="152" y="48" width="8" height="8" fill="#111827"/><rect x="160" y="48" width="8" height="8" fill="#111827"/><rect x="0" y="56" width="8" height="8" fill="#111827"/><rect x="8" y="56" width="8" height="8" fill="#111827"/><rect x="24" y="56" width="8" height="8" fill="#111827"/><rect x="48" y="56" width="8" height="8" fill="#111827"/><rect x="104" y="56" width="8" height="8" fill="#111827"/><rect x="112" y="56" width="8" height="8" fill="#111827"/><rect x="120" y="56" width="8" height="8" fill="#111827"/><rect x="128" y="56" width="8" height="8" fill="#111827"/><rect x="136" y="56" width="8" height="8" fill="#111827"/><rect x="144" y="56" width="8" height="8" fill="#111827"/><rect x="152" y="56" width="8" height="8" fill="#111827"/><rect x="160" y="56" width="8" height="8" fill="#111827"/><rect x="0" y="64" width="8" height="8" fill="#111827"/><rect x="16" y="64" width="8" height="8" fill="#111827"/><rect x="40" y="64" width="8" height="8" fill="#111827"/><rect x="48" y="64" width="8" height="8" fill="#111827"/><rect x="64" y="64" width="8" height="8" fill="#111827"/><rect x="88" y="64" width="8" height="8" fill="#111827"/><rect x="96" y="64" width="8" height="8" fill="#111827"/><rect x="112" y="64" width="8" height="8" fill="#111827"/><rect x="120" y="64" width="8" height="8" fill="#111827"/><rect x="128" y="64" width="8" height="8" fill="#111827"/><rect x="136" y="64" width="8" height="8" fill="#111827"/><rect x="144" y="64" width="8" height="8" fill="#111827"/><rect x="152" y="64" width="8" height="8" fill="#111827"/><rect x="0" y="72" width="8" height="8" fill="#111827"/><rect x="8" y="72" width="8" height="8" fill="#111827"/><rect x="16" y="72" width="8" height="8" fill="#111827"/><rect x="32" y="72" width="8" height="8" fill="#111827"/><rect x="40" y="72" width="8" height="8" fill="#111827"/><rect x="48" y="72" width="8" height="8" fill="#111827"/><rect x="72" y="72" width="8" height="8" fill="#111827"/><rect x="80" y="72" width="8" height="8" fill="#111827"/><rect x="88" y="72" width="8" height="8" fill="#111827"/><rect x="104" y="72" width="8" height="8" fill="#111827"/><rect x="112" y="72" width="8" height="8" fill="#111827"/><rect x="120" y="72" width="8" height="8" fill="#111827"/><rect x="160" y="72" width="8" height="8" fill="#111827"/><rect x="0" y="80" width="8" height="8" fill="#111827"/><rect x="8" y="80" width="8" height="8" fill="#111827"/><rect x="16" y="80" width="8" height="8" fill="#111827"/><rect x="32" y="80" width="8" height="8" fill="#111827"/><rect x="56" y="80" width="8" height="8" fill="#111827"/><rect x="112" y="80" width="8" height="8" fill="#111827"/><rect x="120" y="80" width="8" height="8" fill="#111827"/><rect x="128" y="80" width="8" height="8" fill="#111827"/><rect x="136" y="80" width="8" height="8" fill="#111827"/><rect x="144" y="80" width="8" height="8" fill="#111827"/><rect x="152" y="80" width="8" height="8" fill="#111827"/><rect x="160" y="80" width="8" height="8" fill="#111827"/><rect x="0" y="88" width="8" height="8" fill="#111827"/><rect x="8" y="88" width="8" height="8" fill="#111827"/><rect x="24" y="88" width="8" height="8" fill="#111827"/><rect x="48" y="88" width="8" height="8" fill="#111827"/><rect x="56" y="88" width="8" height="8" fill="#111827"/><rect x="72" y="88" width="8" height="8" fill="#111827"/><rect x="96" y="88" width="8" height="8" fill="#111827"/><rect x="104" y="88" width="8" height="8" fill="#111827"/><rect x="120" y="88" width="8" height="8" fill="#111827"/><rect x="128" y="88" width="8" height="8" fill="#111827"/><rect x="136" y="88" width="8" height="8" fill="#111827"/><rect x="144" y="88" width="8" height="8" fill="#111827"/><rect x="152" y="88" width="8" height="8" fill="#111827"/><rect x="160" y="88" width="8" height="8" fill="#111827"/><rect x="8" y="96" width="8" height="8" fill="#111827"/><rect x="16" y="96" width="8" height="8" fill="#111827"/><rect x="24" y="96" width="8" height="8" fill="#111827"/><rect x="40" y="96" width="8" height="8" fill="#111827"/><rect x="48" y="96" width="8" height="8" fill="#111827"/><rect x="56" y="96" width="8" height="8" fill="#111827"/><rect x="80" y="96" width="8" height="8" fill="#111827"/><rect x="88" y="96" width="8" height="8" fill="#111827"/><rect x="96" y="96" width="8" height="8" fill="#111827"/><rect x="112" y="96" width="8" height="8" fill="#111827"/><rect x="120" y="96" width="8" height="8" fill="#111827"/><rect x="128" y="96" width="8" height="8" fill="#111827"/><rect x="0" y="104" width="8" height="8" fill="#111827"/><rect x="8" y="104" width="8" height="8" fill="#111827"/><rect x="16" y="104" width="8" height="8" fill="#111827"/><rect x="24" y="104" width="8" height="8" fill="#111827"/><rect x="40" y="104" width="8" height="8" fill="#111827"/><rect x="64" y="104" width="8" height="8" fill="#111827"/><rect x="120" y="104" width="8" height="8" fill="#111827"/><rect x="128" y="104" width="8" height="8" fill="#111827"/><rect x="136" y="104" width="8" height="8" fill="#111827"/><rect x="144" y="104" width="8" height="8" fill="#111827"/><rect x="152" y="104" width="8" height="8" fill="#111827"/><rect x="160" y="104" width="8" height="8" fill="#111827"/><rect x="0" y="112" width="8" height="8" fill="#111827"/><rect x="8" y="112" width="8" height="8" fill="#111827"/><rect x="16" y="112" width="8" height="8" fill="#111827"/><rect x="24" y="112" width="8" height="8" fill="#111827"/><rect x="32" y="112" width="8" height="8" fill="#111827"/><rect x="40" y="112" width="8" height="8" fill="#111827"/><rect x="48" y="112" width="8" height="8" fill="#111827"/><rect x="56" y="112" width="8" height="8" fill="#111827"/><rect x="64" y="112" width="8" height="8" fill="#111827"/><rect x="80" y="112" width="8" height="8" fill="#111827"/><rect x="104" y="112" width="8" height="8" fill="#111827"/><rect x="112" y="112" width="8" height="8" fill="#111827"/><rect x="128" y="112" width="8" height="8" fill="#111827"/><rect x="136" y="112" width="8" height="8" fill="#111827"/><rect x="144" y="112" width="8" height="8" fill="#111827"/><rect x="152" y="112" width="8" height="8" fill="#111827"/><rect x="160" y="112" width="8" height="8" fill="#111827"/><rect x="0" y="120" width="8" height="8" fill="#111827"/><rect x="8" y="120" width="8" height="8" fill="#111827"/><rect x="16" y="120" width="8" height="8" fill="#111827"/><rect x="24" y="120" width="8" height="8" fill="#111827"/><rect x="32" y="120" width="8" height="8" fill="#111827"/><rect x="40" y="120" width="8" height="8" fill="#111827"/><rect x="48" y="120" width="8" height="8" fill="#111827"/><rect x="56" y="120" width="8" height="8" fill="#111827"/><rect x="64" y="120" width="8" height="8" fill="#111827"/><rect x="88" y="120" width="8" height="8" fill="#111827"/><rect x="96" y="120" width="8" height="8" fill="#111827"/><rect x="104" y="120" width="8" height="8" fill="#111827"/><rect x="120" y="120" width="8" height="8" fill="#111827"/><rect x="128" y="120" width="8" height="8" fill="#111827"/><rect x="136" y="120" width="8" height="8" fill="#111827"/><rect x="0" y="128" width="8" height="8" fill="#111827"/><rect x="8" y="128" width="8" height="8" fill="#111827"/><rect x="16" y="128" width="8" height="8" fill="#111827"/><rect x="24" y="128" width="8" height="8" fill="#111827"/><rect x="32" y="128" width="8" height="8" fill="#111827"/><rect x="40" y="128" width="8" height="8" fill="#111827"/><rect x="48" y="128" width="8" height="8" fill="#111827"/><rect x="72" y="128" width="8" height="8" fill="#111827"/><rect x="128" y="128" width="8" height="8" fill="#111827"/><rect x="136" y="128" width="8" height="8" fill="#111827"/><rect x="144" y="128" width="8" height="8" fill="#111827"/><rect x="152" y="128" width="8" height="8" fill="#111827"/><rect x="160" y="128" width="8" height="8" fill="#111827"/><rect x="0" y="136" width="8" height="8" fill="#111827"/><rect x="8" y="136" width="8" height="8" fill="#111827"/><rect x="16" y="136" width="8" height="8" fill="#111827"/><rect x="24" y="136" width="8" height="8" fill="#111827"/><rect x="32" y="136" width="8" height="8" fill="#111827"/><rect x="40" y="136" width="8" height="8" fill="#111827"/><rect x="48" y="136" width="8" height="8" fill="#111827"/><rect x="64" y="136" width="8" height="8" fill="#111827"/><rect x="72" y="136" width="8" height="8" fill="#111827"/><rect x="88" y="136" width="8" height="8" fill="#111827"/><rect x="112" y="136" width="8" height="8" fill="#111827"/><rect x="120" y="136" width="8" height="8" fill="#111827"/><rect x="136" y="136" width="8" height="8" fill="#111827"/><rect x="144" y="136" width="8" height="8" fill="#111827"/><rect x="152" y="136" width="8" height="8" fill="#111827"/><rect x="160" y="136" width="8" height="8" fill="#111827"/><rect x="0" y="144" width="8" height="8" fill="#111827"/><rect x="8" y="144" width="8" height="8" fill="#111827"/><rect x="16" y="144" width="8" height="8" fill="#111827"/><rect x="24" y="144" width="8" height="8" fill="#111827"/><rect x="32" y="144" width="8" height="8" fill="#111827"/><rect x="40" y="144" width="8" height="8" fill="#111827"/><rect x="48" y="144" width="8" height="8" fill="#111827"/><rect x="56" y="144" width="8" height="8" fill="#111827"/><rect x="64" y="144" width="8" height="8" fill="#111827"/><rect x="72" y="144" width="8" height="8" fill="#111827"/><rect x="96" y="144" width="8" height="8" fill="#111827"/><rect x="104" y="144" width="8" height="8" fill="#111827"/><rect x="112" y="144" width="8" height="8" fill="#111827"/><rect x="128" y="144" width="8" height="8" fill="#111827"/><rect x="136" y="144" width="8" height="8" fill="#111827"/><rect x="144" y="144" width="8" height="8" fill="#111827"/><rect x="0" y="152" width="8" height="8" fill="#111827"/><rect x="8" y="152" width="8" height="8" fill="#111827"/><rect x="16" y="152" width="8" height="8" fill="#111827"/><rect x="24" y="152" width="8" height="8" fill="#111827"/><rect x="32" y="152" width="8" height="8" fill="#111827"/><rect x="40" y="152" width="8" height="8" fill="#111827"/><rect x="48" y="152" width="8" height="8" fill="#111827"/><rect x="56" y="152" width="8" height="8" fill="#111827"/><rect x="80" y="152" width="8" height="8" fill="#111827"/><rect x="136" y="152" width="8" height="8" fill="#111827"/><rect x="144" y="152" width="8" height="8" fill="#111827"/><rect x="152" y="152" width="8" height="8" fill="#111827"/><rect x="160" y="152" width="8" height="8" fill="#111827"/><rect x="0" y="160" width="8" height="8" fill="#111827"/><rect x="8" y="160" width="8" height="8" fill="#111827"/><rect x="16" y="160" width="8" height="8" fill="#111827"/><rect x="24" y="160" width="8" height="8" fill="#111827"/><rect x="32" y="160" width="8" height="8" fill="#111827"/><rect x="40" y="160" width="8" height="8" fill="#111827"/><rect x="48" y="160" width="8" height="8" fill="#111827"/><rect x="72" y="160" width="8" height="8" fill="#111827"/><rect x="80" y="160" width="8" height="8" fill="#111827"/><rect x="96" y="160" width="8" height="8" fill="#111827"/><rect x="120" y="160" width="8" height="8" fill="#111827"/><rect x="128" y="160" width="8" height="8" fill="#111827"/><rect x="144" y="160" width="8" height="8" fill="#111827"/><rect x="152" y="160" width="8" height="8" fill="#111827"/><rect x="160" y="160" width="8" height="8" fill="#111827"/></g><text x="104" y="216" text-anchor="middle" font-family="Arial, sans-serif" font-size="10" fill="#111827">DML-20260618-2-CSEEB5</text></svg>